<svg version="1.1" xmlns="http://www.w3.org/2000/svg" xmlns:xlink="http://www.w3.org/1999/xlink" width="476.77702" height="356.6837" viewBox="0,0,476.77702,356.6837"><g transform="translate(3.97111,0.8)"><g data-paper-data="{&quot;isPaintingLayer&quot;:true}" fill-rule="nonzero" stroke-linejoin="miter" stroke-miterlimit="10" stroke-dasharray="" stroke-dashoffset="0" style="mix-blend-mode: normal"><path d="M3.80591,339.2v-339h468v339zM206.80591,220.8174c0.13807,0 0.25,-0.11193 0.25,-0.25c0,-0.13807 -0.11193,-0.25 -0.25,-0.25c-0.13807,0 -0.25,0.11193 -0.25,0.25c0,0.13807 0.11193,0.25 0.25,0.25z" fill="#00d670" stroke="#000000" stroke-width="2" stroke-linecap="butt"/><path d="M275.80591,354.8837v-4h4v4z" fill="#00d670" stroke="#000000" stroke-width="2" stroke-linecap="butt"/><path d="M46.30591,80.5674c0,-1.38071 1.11929,-2.5 2.5,-2.5c0.31255,0 0.61171,0.05736 0.88752,0.16212c0.37426,-0.29029 0.74847,-0.58211 0.98585,-0.97645c0.50201,-0.83391 0.44184,-1.91531 0.88084,-2.78405c0.19065,-0.37727 0.46336,-0.70853 0.74579,-1.03334c0,-5.14816 0,-10.57076 0,-15.86828c0,-4.87653 0,-9.64708 0,-14c0,0 0,-2.5 2.5,-2.5c2.5,0 2.5,2.5 2.5,2.5c0,2.9863 0,5.97259 0,8.95889c0.17583,0.14459 0.32161,0.30649 0.44038,0.46461c0.2385,0.29319 0.41188,0.64147 0.4981,1.02281c0.19885,0.76013 0.28245,1.57186 0.68815,2.23936c0.55628,0.91525 1.80624,1.35506 2.18307,2.35762c0.23834,0.6341 0.1903,5.90905 0.1903,6.95671c0,7.01484 1.4691,14.35788 -3.73223,19.76777l-0.5317,1.35027c0,0 -1.11803,2.23607 -3.3541,1.11803c-2.23607,-1.11803 -1.11803,-3.3541 -1.11803,-3.3541l0.53817,-0.9712c-0.21491,-0.19803 -0.37223,-0.4271 -0.48741,-0.65638c-0.18915,0.79656 -0.23548,1.64435 -0.4144,2.44458l-1.02859,3.0916c0,0 -0.79057,2.37171 -3.16228,1.58114c-2.37171,-0.79057 -1.58114,-3.16228 -1.58114,-3.16228l0.97141,-2.9084c0.09603,-0.35538 0.17624,-0.71675 0.25179,-1.07988c-0.80287,-0.41599 -1.35149,-1.2545 -1.35149,-2.22116z" fill="#00d670" stroke="none" stroke-width="0.5" stroke-linecap="butt"/><path d="M38.19957,48.14204c2.42536,-0.60634 3.0317,1.81902 3.0317,1.81902l0.91936,3.73897c1.81333,3.59009 3.4969,7.13301 5.73541,10.48062c0,0 1.38675,2.08013 -0.69338,3.46688c-2.08013,1.38675 -3.46688,-0.69338 -3.46688,-0.69338c-2.44798,-3.68221 -4.30325,-7.56176 -6.26459,-11.51938l-1.08064,-4.26103c0,0 -0.60634,-2.42536 1.81902,-3.0317z" fill="#00d670" stroke="none" stroke-width="0.5" stroke-linecap="butt"/><path d="M23.68788,82.80346c-2.23607,-1.11803 -1.11803,-3.3541 -1.11803,-3.3541l0.73607,-0.88197c0,-0.4732 -0.00949,-6.14917 0.03228,-6.40046c0.07327,-0.44077 2.42106,-7.2895 2.43835,-7.35767c0.82885,-3.26802 0.67462,-6.75044 1.64097,-9.98048c0.44297,-1.48062 1.55125,-2.69721 2.04083,-4.16308c0.54492,-1.63156 0.42906,-3.4462 1.03787,-5.05502c0.72448,-1.91449 2.53407,-3.42005 2.84198,-5.44375c0.50385,-3.31153 -0.96565,-7.36166 0.15802,-10.55625c0.41918,-1.19173 1.69462,-1.87404 2.54193,-2.81106c0,0 1.76777,-1.76777 3.53553,0c1.76777,1.76777 0,3.53553 0,3.53553c-2.90516,2.36893 -0.68084,7.12818 -1.30005,10.63269c-0.42206,2.38873 -2.30473,4.28556 -3.15802,6.55625c-0.56748,1.51012 -0.41409,3.22004 -0.92329,4.75079c-0.47337,1.42303 -1.56209,2.59616 -1.99801,4.03111c-0.95743,3.15166 -0.76879,6.5618 -1.57699,9.75499c-0.59653,2.3569 -1.94271,4.50893 -2.34369,6.90685c-0.30785,1.84098 0.03228,3.733 0.03228,5.59954l-1.26393,3.11803c0,0 -1.11803,2.23607 -3.3541,1.11803z" fill="#00d670" stroke="none" stroke-width="0.5" stroke-linecap="butt"/><path d="M195.30591,137.5674c0,-1.23201 0,-2.52959 0,-3.87335c-0.37245,-0.43151 -0.72637,-0.87132 -0.89273,-1.40219c-0.02675,-0.08536 -0.05194,-0.17298 -0.07566,-0.26272c-1.13516,0.43486 -2.24629,0.91386 -3.22957,1.19486c-6.10227,1.74391 -11.90801,3.9139 -18.30204,3.8434c-1.24193,-0.01369 -2.54418,0.27939 -3.72446,-0.10727c-0.66209,-0.2169 -1.25373,-0.58348 -1.82592,-0.9914c0.02994,0.88214 0.05038,1.75104 0.05038,2.59867c0,2.76945 -0.41013,5.95524 -0.01873,8.69454c0.33876,2.37094 1.58627,4.54365 1.98645,6.905c0.20881,1.23212 0.26574,2.50133 0.45836,3.73638c0.57392,0.72677 0.57392,1.66408 0.57392,1.66408l-0.17681,0.06499c0.01572,0.04826 0.03188,0.09641 0.04852,0.14444l-0.39528,-0.01699l-4.34813,1.59813c-0.66481,-2.05635 -0.74715,-4.25732 -1.09601,-6.39011c-0.39684,-2.42615 -1.66593,-4.6613 -2.01355,-7.095c-0.41962,-2.93776 -0.01873,-6.33261 -0.01873,-9.30546c0,-4.96008 -0.5705,-10.4952 0.03228,-15.40046c0.12856,-1.04622 0.82049,-1.9613 1,-3c0.72951,-4.22116 -0.03226,-9.32535 -0.03228,-13.59936c-0.60722,-0.4561 -1,-1.18227 -1,-2.00018c0,-1.38071 1.11929,-2.5 2.5,-2.5c1.35651,0 2.46068,1.08039 2.49897,2.42764c1.00103,0.71422 1.00103,2.07236 1.00103,2.07236c0,4.5789 0.69897,9.86647 -0.03228,14.40046c-0.16784,1.04064 -0.86685,1.95435 -1,3c-0.24719,1.94116 -0.28078,4.00577 -0.2367,6.09392c0.66434,0.09791 1.15573,0.4255 1.15573,0.4255c3.63221,2.62179 7.69593,1.82895 11.96659,0.66521c4.63135,-1.26204 9.27203,-2.57391 13.86769,-3.96129c0.07529,-2.05288 0.27897,-4.14255 0.27897,-5.62379c0,0 0,-1.35721 1,-2.07163c0,-3.5125 0,-6.91639 0,-9.92837c0,0 0,-2.5 2.5,-2.5c2.5,0 2.5,2.5 2.5,2.5c0,5.43722 0,10.87443 0,16.31165c0.46567,0.06595 0.94893,0.1874 1.45671,0.37865c1.18223,0.44529 1.87404,1.69462 2.81106,2.54193l0.73223,2.76777c0,0 0,2.5 -2.5,2.5c-0.88128,0 -1.4519,-0.31066 -1.82137,-0.71297c0.08713,0.1552 0.16039,0.31711 0.2141,0.4885c0.89264,2.84847 -0.27821,6.52707 0.0951,9.47812c0.78141,6.17706 1.01217,11.99894 1.01217,18.24634v1c0,0 0,2.5 -2.5,2.5c-2.5,0 -2.5,-2.5 -2.5,-2.5v-1c0,-6.09335 -0.2544,-11.73225 -0.98783,-17.75366c-0.13634,-1.11937 0.05251,-2.57623 0.20843,-4.03722c-1.2206,-0.65902 -1.2206,-2.20913 -1.2206,-2.20913zM200.30959,131.65697c-0.00122,-0.00084 -0.00245,-0.00168 -0.00367,-0.00252c0,0.2621 0,0.52419 0,0.78629c0.10673,0.12366 0.21195,0.248 0.31166,0.37497c-0.24074,-0.48234 -0.29552,-0.96435 -0.30799,-1.15874zM200.63385,131.91124l0.4043,0.42392c-0.12888,-0.15805 -0.26382,-0.29894 -0.4043,-0.42392z" fill="#000000" stroke="none" stroke-width="0.5" stroke-linecap="butt"/><path d="M215.80591,167.5674l25,-62l22,57" fill="none" stroke="#000000" stroke-width="2" stroke-linecap="round"/><path d="M229.80591,137.5674h23" fill="none" stroke="#000000" stroke-width="2" stroke-linecap="round"/><path d="M278.80591,165.5674v-65l33,3l-3,21l-27,7" fill="none" stroke="#000000" stroke-width="2" stroke-linecap="round"/><path d="M318.80591,162.5674l3,-60l31,6l-6,15l-25,1" fill="none" stroke="#000000" stroke-width="2" stroke-linecap="round"/><path d="M359.80591,105.5674l11,29" fill="none" stroke="#000000" stroke-width="2" stroke-linecap="round"/><path d="M398.80591,98.5674l-52,69" fill="none" stroke="#000000" stroke-width="2" stroke-linecap="round"/><path d="M168.80591,157.5674l-1,-12l-2,15l-3,-62" fill="none" stroke="#000000" stroke-width="2" stroke-linecap="round"/><path d="M206.80591,220.8174" fill="none" stroke="#000000" stroke-width="2" stroke-linecap="round"/><path d="M206.80591,220.8174v25.75l-43,3l-4,-65l47,2v33l-43,-1" fill="none" stroke="#000000" stroke-width="2" stroke-linecap="round"/><path d="M229.80591,256.81611c-0.13807,0 -0.25,-0.11193 -0.25,-0.25v-0.5h0.5v0.5c0,0.13807 -0.11193,0.25 -0.25,0.25z" fill="none" stroke="none" stroke-width="0.5" stroke-linecap="butt"/><path d="M258.80591,266.0674c-2.5,0 -2.5,-2.5 -2.5,-2.5l0.03228,-3.40046c0.68908,-2.08445 0.63434,-4.35215 1.16649,-6.48208c0.39976,-1.60003 1.48907,-2.98018 1.84633,-4.59023c0.63857,-2.8778 -0.36025,-5.91467 -0.02504,-8.84334c0.1611,-1.40753 0.85876,-2.71356 1.0595,-4.11598c0.92449,-6.45899 0.92044,-13.04937 0.92044,-19.5679c0,-9.03142 -1.08367,-18.81522 1.07464,-27.60634c0,0 0.60634,-2.42536 3.0317,-1.81902c2.42536,0.60634 1.81902,3.0317 1.81902,3.0317c-2.11865,8.30127 -0.92536,17.84847 -0.92536,26.39366c0,6.77148 -0.02037,13.60862 -0.97731,20.31989c-0.19433,1.36289 -0.88167,2.629 -1.04276,3.99622c-0.0781,0.66285 0.13565,8.38645 -0.02504,9.15666c-0.34397,1.64862 -1.45888,3.06075 -1.86757,4.69453c-0.51228,2.04787 -0.44692,4.23223 -1.1196,6.23315l0.03228,2.59954c0,0 0,2.5 -2.5,2.5z" fill="#33f300" stroke="none" stroke-width="0.5" stroke-linecap="butt"/><path d="M263.80591,264.0674c1.83871,0 2.32508,1.35234 2.45373,2.06777c3.35286,0.15813 6.99927,0.49976 10.09058,-0.02589c2.79205,-0.47477 5.43002,-1.76584 8.24949,-2.03336c2.86447,-0.2718 5.80355,0.58747 8.63182,0.05836c2.12069,-0.39674 3.2694,-2.82081 4.80662,-4.33464c2.7769,-2.73466 6.26007,-3.23298 8.63749,-6.54064c1.13085,-1.57333 0.63136,-5.55913 0.62139,-6.73512c-0.07662,-9.03811 -0.39314,-18.71742 -2.12942,-27.58075c-0.76579,-4.61885 -0.99632,-9.1634 -1.78797,-13.7731c-0.1053,-0.61315 0.111,-1.4079 -0.34149,-1.83486c-0.49972,-0.47153 -1.36129,-0.21042 -2.0228,-0.39606c-1.82364,-0.51176 -3.74157,-0.5926 -5.60989,-0.90399c-1.03975,-0.17329 -1.9613,-0.82049 -3,-1c-4.85528,-0.83909 -10.72664,0.91011 -15.11703,-2.48095c-1.10069,-0.85016 -1.53562,-2.32501 -2.41587,-3.40179c-1.91645,-2.34433 -4.63321,-4.69569 -6.19327,-7.27064c-0.90819,-1.49902 -1.3656,-3.34453 -2.64114,-4.54656c0,0 -1.76777,-1.76777 0,-3.53553c1.76777,-1.76777 3.53553,0 3.53553,0c0.78629,0.81781 1.76391,1.48747 2.35886,2.45344c0.55279,0.89751 0.46203,2.09352 1,3c1.4166,2.38698 4.07919,4.51304 5.80673,6.72936c0.62359,0.80003 0.80962,1.94319 1.58413,2.59821c2.06472,1.74619 7.04505,1.48211 9.48252,1.48677c2.16105,0.00413 4.2688,0.67701 6.40046,1.03228c2.13174,0.35529 4.36095,0.35237 6.39011,1.09601c1.34219,0.49188 2.97829,0.5814 3.9772,1.60394c1.04427,1.06898 1.27011,2.7221 1.65851,4.16514c1.22438,4.54894 1.07859,9.45236 1.85602,14.09084c1.75737,9.12973 2.18989,19.13687 2.20875,28.44275c0.00632,3.11578 0.52686,6.55675 -1.36077,9.37744c-2.84569,4.25231 -6.20464,4.24684 -9.36251,7.45936c-0.87793,0.89312 -1.12939,2.33156 -2.11326,3.10643c-4.80581,3.78496 -9.00781,2.13461 -14.44831,2.61729c-2.65495,0.23554 -5.12021,1.53562 -7.75051,1.96664c-4.1963,0.68763 -9.18328,0.04188 -13.45569,0.04188l-2.5,-4.5c0,0 0,-2.5 2.5,-2.5z" fill="#33f300" stroke="none" stroke-width="0.5" stroke-linecap="butt"/><path d="M375.6227,275.30943c0.31372,-0.14949 0.70219,-0.24204 1.18321,-0.24204c2.5,0 2.5,2.5 2.5,2.5l-3.29057,3.37171c-1.17459,-0.41503 -2.47467,-0.57328 -3.52376,-1.24508c-3.23382,-2.07082 -3.6386,-5.64065 -6.08825,-8.39647c-3.62115,-7.3059 -6.33987,-14.73958 -9.14054,-22.35615c-2.87321,5.18127 -6.97792,10.2677 -10.41604,15.06992c-1.48895,2.0797 -4.68422,6.63836 -7.08414,7.86577c-1.69196,0.86533 -4.04139,-0.20698 -5.64238,0.81693c-0.90229,0.57706 -1.35506,1.80624 -2.35762,2.18307c-0.70181,0.26379 -8.84594,0.1986 -8.95671,0.1903c-1.60339,-0.1202 -3.63082,0.40472 -4.76777,-0.73223c-1.00556,-1.00556 -0.69381,-6.82144 -0.66536,-8.34215c1.22336,-2.52477 1.8735,-5.32798 3.3065,-7.73995c0.48156,-0.81055 1.51091,-1.19397 2,-2c0.47825,-0.78818 0.46047,-1.79215 0.81693,-2.64238c1.15274,-2.74956 2.81555,-5.26395 4,-8c2.01149,-4.64651 3.11493,-9.56843 6.37634,-13.62826c1.31921,-1.64217 3.61675,-2.29894 4.94659,-3.93251c0.53272,-0.6544 0.35291,-1.66015 0.67707,-2.43922c1.09067,-2.6213 1.86572,-5.36862 2.98928,-7.97577c-0.01629,-0.11572 -0.03987,-0.23017 -0.07231,-0.34306c-0.33197,-1.15509 -1.71782,-1.83174 -2,-3c-0.44808,-1.85514 -0.27189,-3.82309 -0.10727,-5.72446c0.39274,-4.53615 0.64162,-8.38527 7.138,-3.88863c0.95321,0.65979 1.45053,1.7447 1.87745,2.87863c0.596,-0.47388 1.60521,-0.91418 2.87129,-0.07012c2.08013,1.38675 0.69338,3.46688 0.69338,3.46688c-0.43922,0.65882 -0.94018,1.34003 -1.46421,2.0368c0.76389,2.33066 1.35074,4.80642 1.82318,7.02798c0.30222,1.42114 0.17745,2.96012 0.7567,4.29257c0.38969,0.89641 1.65972,1.21176 2.0295,2.11657c0.63318,1.54932 1.28432,7.14122 1.81729,9.65752c0.07129,0.12552 0.13916,0.25324 0.20321,0.38343c0.66271,1.34713 1.06528,2.67343 1.2311,3.98798c0.71723,1.81732 1.51309,3.60902 2.18796,5.44119c2.83559,7.69817 5.50958,15.23746 9.09471,22.62869c2.34926,2.72772 2.65302,5.23452 5.05723,6.78255zM345.23639,224.64525c-0.34534,0.97107 -0.70675,1.9356 -1.12078,2.87886c-0.50892,1.15942 -0.53769,2.56747 -1.32293,3.56078c-2.31906,2.93355 -4.95826,3.12163 -6.78857,6.67328c-1.63233,3.16748 -2.4879,6.5332 -3.8885,9.76595c-1.18525,2.7357 -2.82846,5.2584 -4,8c-0.46629,1.0912 -0.57696,2.33744 -1.18307,3.35762c-0.48156,0.81055 -1.51091,1.19397 -2,2c-1.17843,1.94208 -1.6475,4.24356 -2.6935,6.26005c0.02229,0.80854 0.21163,1.62983 0.06688,2.42562c-0.08551,0.47008 -1.07008,0.89438 -0.73223,1.23223c0.33785,0.33785 0.75771,-0.67648 1.23223,-0.73223c1.65528,-0.19448 3.33394,-0.04501 5,0c0.6838,0.01848 1.41748,0.46649 2.04329,0.1903c0.7469,-0.32963 0.93261,-1.41351 1.64238,-1.81693c1.19896,-0.68145 2.55806,-1.08879 3.91387,-1.34109c0.80251,-0.14934 1.70814,0.51186 2.44375,0.15802c2.36133,-1.13585 3.39535,-4.0002 4.91586,-6.13423c2.62932,-3.69025 5.08167,-7.5089 7.70328,-11.20827c1.56467,-2.20792 3.24981,-4.13107 3.88229,-6.81854c0.12517,-0.53185 0.17081,-1.03183 0.15143,-1.5055c-0.55412,-1.47034 -1.04243,-2.76926 -1.23253,-3.28442c-1.04154,-1.49429 -2.51384,-2.80174 -3.49173,-4.27756c-1.66426,-2.51169 -2.85193,-5.9754 -3.93837,-8.76255c-0.19014,-0.21403 -0.39338,-0.41974 -0.60305,-0.62137zM347.94858,220.79295c-0.14387,-0.70692 -0.283,-1.41761 -0.42766,-2.12307c-0.15494,0.29893 -0.29678,0.59746 -0.4229,0.89513c0.01025,0.0281 0.02126,0.05607 0.03306,0.0839c0.1864,0.43933 0.47687,0.80857 0.8175,1.14403zM345.24559,212.99657c0.14657,-0.20574 0.29456,-0.4109 0.44332,-0.61539c-0.18385,-0.45 -0.37247,-0.89828 -0.55791,-1.34766c-0.04583,0.66275 -0.06327,1.30617 0.06764,1.80942c0.01357,0.05215 0.02928,0.10333 0.04694,0.15363z" fill="#33f300" stroke="none" stroke-width="0.5" stroke-linecap="butt"/><path d="M400.01534,300.9391c-2.37171,-0.79057 -1.58114,-3.16228 -1.58114,-3.16228l1,-3c0.62446,-1.87339 1.57935,-3.66203 1.90399,-5.60989c0.18585,-1.11511 -0.34055,-2.34732 0.09601,-3.39011c0.68666,-1.64019 2.28592,-2.75432 3.13126,-4.31866c0.51593,-0.95475 0.59608,-2.08701 0.89412,-3.13051c1.4443,-1.83725 3.19971,-3.43745 4.71387,-5.21482c-2.25355,-5.06828 -5.52426,-9.5239 -8.49417,-14.23111c-1.59088,-2.5215 -2.43015,-5.46535 -4,-8c-1.79202,-2.89337 -4.1848,-5.44705 -5.57572,-8.55321c-3.24328,-7.24283 -5.58756,-15.01767 -8.39798,-22.39945c-1.24448,-3.26873 -2.85725,-4.55108 -3.36739,-7.9612c-0.4636,-3.09902 -0.03228,-6.26695 -0.03228,-9.40046c0,0 0,-2.5 2.5,-2.5c2.5,0 2.5,2.5 2.5,2.5c0,2.86653 -0.41295,5.7584 -0.03228,8.59954c0.25246,1.88424 2.69516,5.90727 3.10475,6.98307c1.77468,4.66131 3.22597,9.28854 5.21388,13.91627c1.15564,2.69025 1.89746,5.54754 3.07828,8.22683c1.28273,2.91054 3.59227,5.25282 5.26201,7.95995c1.56515,2.53756 2.40205,5.48297 4,8c2.43733,3.83919 4.99695,7.52651 7.12808,11.47201c0.15715,-0.46964 0.33155,-0.93133 0.55792,-1.36823c1.25512,-2.42238 3.39836,-4.2868 4.81613,-6.61772c5.05903,-8.31745 9.79656,-16.9239 13.86493,-25.7465c1.75909,-3.81474 3.47302,-7.66459 5.23836,-11.4771c1.08074,-2.33402 3.02486,-4.24514 3.87521,-6.67259c0.5815,-1.65997 -0.10727,-3.51666 -0.10727,-5.27554c0,0 0,-2.5 2.5,-2.5c2.5,0 2.5,2.5 2.5,2.5c0,0.7784 0.02879,6.30222 -0.10727,6.72446c-0.85964,2.66779 -2.95239,4.78151 -4.12479,7.32741c-1.75794,3.81745 -3.47416,7.65155 -5.23377,11.46717c-4.14644,8.99133 -8.96947,17.78241 -14.13507,26.2535c-1.38453,2.27049 -3.49986,4.07085 -4.71173,6.43801c-0.78239,1.52825 -1.02099,3.31995 -1.9348,4.77344c-0.06568,0.10448 -0.1327,0.20795 -0.20096,0.3105c0.11024,0.30265 0.217,0.60758 0.3201,0.91494l0.74633,-0.4455c0,0 2.23607,1.11803 1.11803,3.3541c-1.11803,2.23607 -3.3541,1.11803 -3.3541,1.11803l-1.83403,-1.37848c-1.00614,1.04459 -2.03471,2.0735 -2.94856,3.19084c-0.28631,1.02027 -0.34619,2.13343 -0.85893,3.0608c-0.75274,1.36147 -2.24133,2.25777 -2.86874,3.68134c-0.35109,0.79661 0.23913,1.75118 0.09601,2.60989c-0.04409,0.26457 -1.94189,5.92776 -2.09601,6.39011l-1,3c0,0 -0.79057,2.37171 -3.16228,1.58114z" fill="#33f300" stroke="none" stroke-width="0.5" stroke-linecap="butt"/><path d="M227.80591,270.5674h-63v25l64,-3v23l-76,1" fill="none" stroke="#000000" stroke-width="2" stroke-linecap="round"/><path d="M231.80591,314.5674l16,-30l12,33" fill="none" stroke="#000000" stroke-width="2" stroke-linecap="round"/><path d="M239.80591,296.5674l20,6" fill="none" stroke="#000000" stroke-width="2" stroke-linecap="round"/><path d="M295.80591,288.5674h-23l6,17l25,1l-5,16l-26,-5" fill="none" stroke="#000000" stroke-width="2" stroke-linecap="round"/><path d="M319.80591,295.5674l-5,36" fill="none" stroke="#000000" stroke-width="2" stroke-linecap="round"/><path d="M349.80591,312.5674l-31,-1" fill="none" stroke="#000000" stroke-width="2" stroke-linecap="round"/><path d="M349.80591,297.5674l-3,34" fill="none" stroke="#000000" stroke-width="2" stroke-linecap="round"/><path d="M372.80591,327.5674l12,-29l22,33" fill="none" stroke="#000000" stroke-width="2" stroke-linecap="round"/><path d="M378.80591,315.5674h17" fill="none" stroke="#000000" stroke-width="2" stroke-linecap="round"/><path d="M27.80591,82.5674v-37l30,3v19h-33" fill="none" stroke="#000000" stroke-width="2" stroke-linecap="round"/><path d="M72.80591,85.5674l4,-36l26,2l-8,19l-25,-3" fill="none" stroke="#000000" stroke-width="2" stroke-linecap="round"/><path d="M93.80591,70.5674l3,25" fill="none" stroke="#000000" stroke-width="2" stroke-linecap="round"/><path d="M134.80591,89.5674l-23,2l2,-42l-4,20h26" fill="none" stroke="#000000" stroke-width="2" stroke-linecap="round"/><path d="M114.80591,51.5674h17" fill="none" stroke="#000000" stroke-width="2" stroke-linecap="round"/><path d="M159.80591,49.5674l-19,1l3,19h21l-2,18h-18" fill="none" stroke="#000000" stroke-width="2" stroke-linecap="round"/><path d="M192.80591,49.5674h-20l1,19h16l1,22h-21" fill="none" stroke="#000000" stroke-width="2" stroke-linecap="round"/><path d="M10.30591,149.5674c0,-2.5 2.5,-2.5 2.5,-2.5h0.5c0,-11.22406 0,-24.33291 0,-35.5c0,-6.5628 -0.90139,-13.51248 1.12829,-19.79057c0,0 0.00868,-0.02605 0.02696,-0.07178c-0.59187,-0.32746 -1.15525,-0.95087 -1.15525,-2.13765c0,-2.5 2.5,-2.5 2.5,-2.5c1.72655,0.0986 3.61675,-0.4445 5.17964,0.29581c1.24986,0.59203 1.4389,2.41379 2.47486,3.32999c0.81303,0.71904 1.85301,1.24148 2.91988,1.44107c3.08837,0.57777 6.28367,-0.06688 9.42562,-0.06688c6.56141,0 13.92708,-0.90524 20.40046,0.03228c4.11175,0.5955 7.90409,3.425 12,4c4.62115,0.64874 9.93664,-0.03228 14.59954,-0.03228c2.80017,0 5.63601,-0.41358 8.40046,0.03228c1.04064,0.16784 1.9613,0.82049 3,1c4.19516,0.72501 9.32372,-0.03228 13.59954,-0.03228c9,0 18,0 27,0c4.15932,0 9.34998,-0.76796 13.40046,0.03228c1.53254,0.30278 3.29551,0.56346 4.36731,1.69995c1.16012,1.23015 1.15482,3.17851 1.73223,4.76777c-1.11407,3.64045 -3.53822,6.54855 -4.01873,10.30546c-0.92282,7.2151 -0.98127,14.35346 -0.98127,21.69454c0,3.9706 0.25054,8.03838 0,12c-0.09439,1.49257 0.45408,3.28736 -0.47189,4.46178c-4.42495,5.61213 -11.83905,-0.22089 -16.47417,-1.00189c-4.11749,-0.69378 -9.06695,0.03807 -13.24848,0.02139c-1.86677,0.47636 -6.67802,1.66867 -8.26167,2.24289c-0.38028,0.13789 -7.93576,3.57678 -8.52663,3.72177c-1.03979,0.25513 -2.15193,-0.1168 -3.21169,0.03534c-1.36042,0.19531 -2.63585,0.83268 -4,1c-9.50492,1.16585 -20.06994,0.0844 -29.4606,-0.97461c-4.14558,-0.46751 -8.66568,-0.00666 -12.84486,-0.00666c-0.30812,0 -7.26313,0.03839 -7.72446,-0.10727c-1.24094,-0.3918 -2.09103,-1.59334 -3.28692,-2.10644c-1.16176,-0.49846 -2.45839,-0.59066 -3.68759,-0.88599c-7.08456,-2.44567 -14.80789,-1.9003 -22.30103,-1.9003h-3c0,0 -2.5,0 -2.5,-2.5zM39.50488,149.1671c1.43747,0.37134 2.94756,0.52973 4.31241,1.11401c1.01385,0.43402 1.67479,1.52177 2.71308,1.89356c1.96969,0.70529 4.18339,-0.10727 6.27554,-0.10727c4.35405,0 9.02907,-0.44105 13.34934,0.03218c1.6548,0.18126 3.24263,0.7949 4.89701,0.97999c5.09363,0.56987 10.6234,-0.01217 15.75366,-0.01217c2.56485,0 5.15029,0.34319 7.69454,0.01873c1.36333,-0.17386 2.6393,-0.80664 4,-1c0.92027,-0.13077 1.88405,0.25053 2.78831,0.03534c2.79365,-0.66481 5.15782,-2.55388 7.85813,-3.53102c2.28724,-0.82767 6.88838,-1.89878 9.35357,-2.50432c4.63436,-0.01636 10.17032,-0.76313 14.75152,0.02139c0.76469,0.13095 7.5444,2.88412 8,3c0.69568,0.17695 1.43565,-0.00745 2.15348,-0.00783c0.45745,-0.00025 1.14058,0.40034 1.37235,0.00594c0.27173,-0.4624 -0.41643,-1.00477 -0.47189,-1.53822c-0.10342,-0.99464 0,-2 0,-3c0,-3 0,-6 0,-9c0,-4.96046 -0.51954,-10.38873 0.01873,-15.30546c0.14957,-1.36621 0.80563,-2.63944 1,-4c0.3676,-2.57322 0.19827,-5.30527 1.19498,-7.70593c0.73034,-1.75908 2.09087,-3.21544 2.78629,-4.98862c-0.53251,-2.45055 -3.34936,-1.51052 -5.5,-1.5c-2.9998,0.01467 -6.00016,0 -9,0c-9,0 -18,0 -27,0c-4.5941,0 -9.87466,0.69765 -14.40046,-0.03228c-1.04064,-0.16784 -1.9613,-0.82049 -3,-1c-2.4962,-0.4314 -5.06634,0.03228 -7.59954,0.03228c-4.92389,0 -10.52305,0.6741 -15.40046,-0.03228c-4.11175,-0.5955 -7.90409,-3.425 -12,-4c-2.8387,-0.39851 -5.73301,0.03228 -8.59954,0.03228c-5.33294,0 -10.6672,0.03373 -16,0c-1.85822,-0.01175 -3.77011,0.37779 -5.57438,-0.06688c-1.84099,-0.45371 -3.59349,-1.38206 -5.08012,-2.55893c-0.49869,-0.39478 -0.61939,-1.1385 -0.85411,-1.76352c-0.0263,0.39978 -0.11967,0.67989 -0.11967,0.67989c-1.94386,5.61208 -0.87171,12.30351 -0.87171,18.20943c0,11.33333 0,22.66667 0,34v1.49145c7.20572,-0.03897 14.33761,-0.11213 21.19897,2.10825z" fill="#33f300" stroke="none" stroke-width="0.5" stroke-linecap="butt"/><path d="M22.30591,138.5674c0,-2.5 2.5,-2.5 2.5,-2.5c1,0 3,0 4,0c2.0435,0.05634 4.06004,-0.8089 5.88197,-1.73607c1.38122,-0.70289 2.73694,-1.46292 4.16133,-2.07363c0.92145,-0.39508 1.9421,-0.52907 2.85833,-0.93609c0.7509,-0.33357 1.44187,-0.7957 2.11161,-1.2717c0.24864,-0.17671 0.8376,-0.45529 0.62208,-0.67117c-1.70674,-1.70968 -5.15558,-2.00956 -7.20127,-2.88904c-2.38277,-1.0244 -4.42175,-2.74798 -6.80186,-3.77854c-2.26115,-0.97905 -7.42139,-2.12916 -8.06531,-5.56938c-0.7199,-3.8462 2.54257,-6.91636 5.70866,-7.96711c3.5816,-1.18866 9.06096,-0.09567 12.51503,1.02102c0,0 2.37171,0.79057 1.58114,3.16228c-0.79057,2.37171 -3.16228,1.58114 -3.16228,1.58114c-2.75839,-0.95543 -6.55736,-1.57316 -9.48497,-0.97898c-1.00065,0.20309 -2.56582,1.04943 -2.29134,2.03289c0.09512,0.34082 0.6158,0.3528 0.94311,0.48728c1.41405,0.58099 2.86885,1.06059 4.27636,1.65725c2.28507,0.96867 4.20586,2.67765 6.4883,3.65251c0.85964,0.36716 1.91003,0.0779 2.76819,0.44849c4.6982,2.02887 9.84105,5.08863 6.07769,10.84634c-0.86628,1.32536 -2.49485,1.97659 -3.88839,2.7283c-2.22783,1.20176 -4.70899,1.87296 -6.98034,2.99028c-2.52078,1.24002 -5.30926,2.21138 -8.11803,2.26393c-1,0 -2,0 -3,0h-1c0,0 -2.5,0 -2.5,-2.5z" fill="#33f300" stroke="none" stroke-width="0.5" stroke-linecap="butt"/><path d="M56.60173,123.38775c0.4277,-0.6783 -0.45129,-1.6243 -0.22894,-2.39474c0.48083,-1.66608 1.39488,-3.18387 2.27085,-4.68043c0.45028,-0.7693 1.21149,-1.32141 1.6844,-2.07702c0.11322,-0.18091 0.22823,-0.61663 0.0161,-0.64006c-1.60128,-0.17691 -4.06356,0.38911 -6.05811,0.90535c-0.06551,3.40552 -0.27129,6.93394 -0.28641,10.44523c0.77498,-0.60508 2.0695,-0.71366 2.6021,-1.55833zM58.80591,109.0674c1.49301,0.08711 3.35029,-0.52874 4.46178,0.47189c5.48325,4.9364 -0.77805,8.1797 -2.02865,12.60249c-0.32765,1.15874 0.37214,2.56183 -0.22894,3.60526c-0.59991,1.04142 -2.37719,0.97211 -3,2c-0.48005,0.79227 0.47574,1.92791 0.10551,2.77706c-0.5049,1.15802 -1.69462,1.87404 -2.54193,2.81106l-0.91596,0.91596c0.32716,1.85798 0.80266,3.67254 1.48206,5.42016l0.90219,1.77808c0,0 1.11803,2.23607 -1.11803,3.3541c-2.23607,1.11803 -3.3541,-1.11803 -3.3541,-1.11803l-1.09781,-2.22192c-3.42183,-9.0082 -2.18472,-19.17259 -2.16633,-28.68466c-0.1007,-0.79845 0.14979,-1.37113 0.49866,-1.77422c0.30763,-0.43791 0.80513,-0.8211 1.60967,-0.91519c2.41955,-0.59253 4.90902,-1.1669 7.39187,-1.02205z" fill="#33f300" stroke="none" stroke-width="0.5" stroke-linecap="butt"/><path d="M107.80591,127.0674c0,0 -2.09306,0 -2.44888,-1.91515c-0.61507,0.61316 -1.12654,1.21786 -1.42449,1.72948c-0.48984,0.84112 -0.44184,1.91531 -0.88084,2.78405c-0.48319,0.9562 -1.54915,1.59874 -1.85306,2.62608c-0.30988,1.04756 0.21375,2.18831 0.10727,3.27554c-0.01529,0.15611 -0.11841,0.32894 -0.24031,0.5h0.74031c0,0 1.37491,0 2.08548,1.01963c0.2119,0.00934 0.42006,0.03708 0.62202,0.09396c1.38777,0.39088 2.46412,1.59059 3.85994,1.95166c3.48576,0.90169 8.7885,-0.06525 12.43256,-0.06525h2c0,0 2.5,0 2.5,2.5c0,2.5 -2.5,2.5 -2.5,2.5h-2c-4.08992,0 -9.63493,0.88563 -13.56744,-0.06525c-1.55862,-0.37688 -2.83103,-1.52891 -4.33425,-2.08718c-1.30625,-0.48513 -2.87579,-0.46218 -4.22464,-0.81996c-2.94942,0.0666 -6.00194,0.21348 -8.87367,-0.02761c-1.60384,-0.13465 -3.76782,0.52141 -4.77195,-0.73643c-0.38975,-0.48822 -0.61255,-1.05602 -0.73214,-1.66756c-0.03064,0.4586 -0.29058,2.40399 -2.49591,2.40399c-2.5,0 -2.5,-2.5 -2.5,-2.5l0.41987,0.38675c-1.09742,-1.66633 -1.86597,-3.03987 -2.39241,-4.41438c-0.20501,0.81374 -0.41432,1.61073 -1.06569,2.05574c-2.32234,1.5866 -10.76899,0.61627 -12.48988,-1.56633c-0.92598,-1.17441 -0.3775,-2.9692 -0.47189,-4.46178c-0.19992,-3.1612 -0.7042,-8.68618 2.03822,-11.02811c0.99073,-0.84604 2.64123,-0.02504 3.88739,-0.40502c1.4259,-0.43478 2.56187,-1.60757 4,-2c1.14964,-0.31371 2.38292,-0.04459 3.57438,-0.06688c0,0 0.82823,0 1.53126,0.47671c0.41235,-0.29985 0.91989,-0.47671 1.46874,-0.47671c1.38071,0 2.5,1.11929 2.5,2.5v3h-0.1795l0.14722,0.40046c-0.39565,1.22263 -0.65982,2.49388 -0.95566,3.75198c-0.02502,1.93991 -0.07621,4.1949 -0.04434,4.44711c0.25939,2.05262 1.49374,3.36003 2.61241,5.01371l0.32974,1.87437c-0.11608,-1.24564 0.08418,-2.61433 0.12231,-3.83696c0.0862,-2.76394 1.55069,-5.3226 2.0001,-8.05112c0.16252,-0.98671 -0.17947,-2.01624 0,-3c0.62161,-3.40733 1.53115,-4.16745 3.38759,-6.98629c0,0 1.38675,-2.08013 3.46688,-0.69338c2.08013,1.38675 0.69338,3.46688 0.69338,3.46688c-2.55491,3.77682 -2.57413,6.94569 -3.66388,11.25492c-0.37627,1.4879 -0.53829,3.02433 -0.90959,4.51347c-0.17799,0.71386 -0.98809,1.39057 -0.73471,2.08128c0.16438,0.44811 0.7554,-0.66985 1.22805,-0.73643c1.3203,-0.18598 2.66667,0 4,0c0.83455,0 1.66911,0 2.50366,0c0.00462,-0.17052 0.00435,-0.33772 -0.00366,-0.5c-0.34309,-6.95295 4.80384,-15.42175 11.48862,-18.28629c2.9595,-1.2682 5.86969,-1.43624 9.01138,-1.21371c1.93318,0.13693 4.56302,-0.78583 5.76777,0.73223c4.53528,5.71475 0.62867,6.68181 -2.54105,7.03471c-3.79055,3.34958 -7.17704,3.23306 -12.22672,3.23306zM115.32858,121.17024c-1.88206,0.06144 -3.80679,-0.04719 -5.51129,0.68344c-0.15259,0.06541 -0.31716,0.14601 -0.49105,0.23975c2.29779,0.06422 4.18814,0.15518 5.99992,-0.90225c0.00078,-0.007 0.00159,-0.01399 0.00241,-0.02094zM76.25767,126.67259c-0.10636,-1.15926 -0.32201,-2.33929 0.06698,-3.41065c0.03505,-0.09655 0.07169,-0.19233 0.10982,-0.2874l-0.05391,-0.01348l0.22381,-0.89523c-2.1565,0.02532 -4.12504,1.38699 -6.22407,1.9347c-0.6938,0.18103 -1.46099,-0.70422 -2.11261,-0.40502c-0.41572,0.19089 0.00154,0.91492 0.00594,1.37235c0.00834,0.86654 0.02729,1.73298 0.03228,2.59954c0.00576,0.99998 0.10342,2.00536 0,3c-0.05547,0.53345 -0.74362,1.07583 -0.47189,1.53822c0.23177,0.3944 0.91492,-0.00154 1.37235,-0.00594c0.86654,-0.00834 1.73781,-0.12384 2.59954,-0.03228c0.53333,0.05666 1.15296,0.84501 1.53822,0.47189c0.55328,-0.53584 -0.03285,-1.6096 0.33515,-2.28622c0.43567,-0.80105 1.53923,-1.10389 1.95113,-1.91742c0.26917,-0.53163 0.4669,-1.09017 0.62725,-1.66306z" fill="#33f300" stroke="none" stroke-width="0.5" stroke-linecap="butt"/><path d="M41.30591,181.5674c0,2.5 -2.5,2.5 -2.5,2.5h-3c-2.93927,-0.02043 -5.72034,0.70402 -8.5,1.52347c0,3.65884 0,7.31769 0,10.97653c0,1.33333 0.04197,2.66733 0,4c-0.00249,0.07907 -0.77035,2.57082 0.45671,2.6903c5.27567,0.51371 10.75781,-0.49629 16.08658,0l1.18894,-1.45807c0,0 1.76777,-1.76777 3.53553,0c1.76777,1.76777 0,3.53553 0,3.53553l-2.81106,2.54193c-4.64359,0.22334 -9.30695,0.27917 -13.95671,0.1903c-1.98622,-0.03796 -4.10006,0.51635 -5.95671,-0.1903c-4.0609,-1.54559 -3.46567,-4.06407 -3.54329,-7.3097c-0.10783,-4.50869 -0.10334,-9.02488 -0.07427,-13.54123c-0.57351,0.0843 -2.34526,0.17087 -2.85109,-1.85243c-0.60634,-2.42536 1.81902,-3.0317 1.81902,-3.0317c0.35906,-0.08959 0.71598,-0.18226 1.07113,-0.2771c0.01889,-2.43367 0.03521,-4.86657 0.03521,-7.29755c0,0 0,-2.5 2.5,-2.5c2.5,0 2.5,2.5 2.5,2.5c0,1.96099 0,3.92197 0,5.88296c2.76083,-0.75265 5.5288,-1.36612 8.5,-1.38296h3c0,0 2.5,0 2.5,2.5z" fill="#33f300" stroke="none" stroke-width="0.5" stroke-linecap="butt"/><path d="M62.30591,205.5674c0,-0.18071 0.01306,-0.34836 0.0373,-0.50389c-1.59391,-0.01619 -3.17679,-0.06276 -3.49401,-0.18641c-1.10045,-0.42893 -1.69587,-1.65135 -2.62826,-2.37634c-1.86197,-1.4478 -4.42723,-2.42419 -5.59053,-4.70161c-1.39864,-2.73815 -1.41901,-5.33752 -1.3245,-8.23175c0.05644,-1.72844 -0.45314,-3.62088 0.29581,-5.17964c0.62104,-1.29255 2.43061,-1.56601 3.43642,-2.58812c1.8221,-1.85163 2.18449,-5.04001 4.58812,-6.43642c0.6307,-0.36641 6.03808,-0.29581 7.17964,-0.29581c1.15459,0 6.53074,-0.0706 7.17964,0.29581c1.32,0.74536 1.79171,2.44767 2.75371,3.61921c0.74953,0.91279 1.98616,1.51349 2.37634,2.62826c0.51254,1.46436 0.11438,3.10083 0.17157,4.65125c0.33333,1.33333 0.81018,2.6388 1,4c0.24637,1.76674 -0.90031,3.72056 -0.17157,5.34875c0.38516,0.86055 1.738,1.09433 2,2c0.45514,1.57329 0.56909,3.37766 0,4.91342c-1.85082,4.99465 -10.11723,5.51254 -14.3097,5.54329h-1c0,0 -2.5,0 -2.5,-2.5zM68.27929,202.99641c2.12923,-0.15774 4.10793,-0.59743 6.2123,-1.55565c0.60939,-0.27748 1.56698,-1.04879 1.00463,-1.91666c-0.51269,-0.79123 -1.67463,-1.11512 -2,-2c-0.71196,-1.93624 0.12602,-4.62099 -0.17157,-6.65125c-0.19932,-1.35984 -0.66667,-2.66667 -1,-4c0.05719,-1.11625 0.5002,-2.28044 0.17157,-3.34875c-0.20832,-0.6772 -1.19323,-0.80895 -1.62366,-1.37174c-0.54417,-0.71152 -0.50553,-1.87715 -1.24629,-2.38079c-0.50838,-0.34564 -1.20676,0.25816 -1.82036,0.29581c-0.99812,0.06125 -2,0 -3,0c-1,0 -2.00188,0.06125 -3,0c-0.61359,-0.03765 -1.30403,-0.62945 -1.82036,-0.29581c-1.8272,1.18069 -1.86043,4.03855 -3.41188,5.56358c-0.69572,0.68387 -2.10282,0.55199 -2.56358,1.41188c-0.44646,0.8332 0.24838,1.87627 0.29581,2.82036c0.04507,0.89707 -0.1232,1.80244 -0.01873,2.69454c0.50231,4.28931 2.02985,3.82424 5.1037,6.3721c0.54549,0.45214 0.71843,1.34945 1.37174,1.62366c1.5512,0.65107 3.361,-0.1903 5.04329,-0.1903c0,0 2.5,0 2.5,2.5c0,0.15207 -0.00925,0.29489 -0.02662,0.42902z" fill="#33f300" stroke="none" stroke-width="0.5" stroke-linecap="butt"/><path d="M25.30591,256.5674c0,2.5 -2.5,2.5 -2.5,2.5c-5.33333,0 -11.66667,0 -17,0c-1.33663,0 -6.72988,0.10518 -7.46178,-0.47189c-3.90098,-3.07577 -2.05969,-10.3583 -0.35772,-13.83649c2.27019,-4.63944 6.10624,-10.36467 10.50517,-13.31824c0.94233,-0.63271 2.19896,-0.61512 3.21595,-1.11916c1.19438,-0.59196 2.10342,-1.74347 3.37392,-2.14694c0.42844,-0.13606 5.94107,-0.10727 6.72446,-0.10727c0,0 2.5,0 2.5,2.5c0,2.5 -2.5,2.5 -2.5,2.5c-1.75888,0 -3.61862,-0.69741 -5.27554,-0.10727c-1.00925,0.35946 -1.66988,1.36986 -2.62608,1.85306c-0.86874,0.439 -1.97194,0.34427 -2.78405,0.88084c-3.6207,2.39223 -6.73618,7.54826 -8.63979,11.25669c-0.96392,1.87781 -1.20859,4.10546 -1.20682,6.21623c0.00038,0.45745 -0.40034,1.14058 -0.00594,1.37235c0.4624,0.27173 1.00477,-0.41643 1.53822,-0.47189c0.99464,-0.10342 2,0 3,0c5.33333,0 10.66667,0 16,0h1c0,0 2.5,0 2.5,2.5z" fill="#33f300" stroke="none" stroke-width="0.5" stroke-linecap="butt"/><path d="M118.80591,251.0674c-0.49604,0 -0.89365,-0.09842 -1.21237,-0.25621c-1.24335,2.71223 -2.75082,3.83613 -4.89899,6.39421c-2.65409,3.16052 -3.99413,7.01541 -9.28909,6.82971c-1.51899,-0.05327 -2.52328,-1.74659 -3.5329,-2.88275c-1.01351,-1.14053 -1.97031,-2.41523 -2.45937,-3.86051c-0.3981,-1.17647 -0.092,-2.48255 -0.10727,-3.72446c0,0 0,2.5 -2.5,2.5c-2.5,0 -2.5,-2.5 -2.5,-2.5v-3c0,-2.21095 0.77169,-6.18854 0.10727,-8.27554c-1.33379,-4.18956 -7.93122,-6.60327 -11.19224,-8.79111c-0.22046,-0.48184 -0.13996,-1.35116 -0.66137,-1.44552c-0.47922,-0.08673 -0.64664,0.73892 -0.87946,1.16667c-0.64629,1.18739 -1.03453,2.51128 -1.74757,3.65982c-0.84815,1.36617 -2.08365,2.46778 -2.91218,3.84594c-1.95806,3.25698 -0.58305,9.2065 -0.71445,12.83973c-0.05048,1.39579 0.65381,3.15545 -0.29581,4.17964c-1.60097,1.72669 -4.11807,3.66556 -6.38383,3.02454c-1.64825,-0.46632 -1.32036,-7.90709 -1.32036,-9.20419c0,-4.66667 0,-9.33333 0,-14c-0.02498,4.1796 -0.30384,9.18522 -2.24266,13.07443c-0.80689,1.6186 -2.17058,2.89404 -3.2165,4.3695c-1.27259,1.79525 -2.71144,4.62529 -4.8091,5.73157c-1.38438,0.73011 -3.03147,0.78247 -4.53278,1.2248c-2.66969,0.78657 -5.10976,2.30756 -7.82837,2.90346c-0.7877,0.17266 -6.39856,0.2362 -7.8706,0.19624c-3.40735,-0.0925 -5.57052,0.53541 -7.3097,-3.54329c-0.64854,-1.52095 -0.12687,-3.30447 -0.1903,-4.95671l1.26393,-3.11803c0,0 1.04598,-2.09195 3.13793,-1.21732c-0.93651,-2.70635 -1.92745,-5.57092 -2.36958,-8.26419c-0.5397,-3.28766 -0.03228,-7.06393 -0.03228,-10.40046c0,-1.15336 -0.14346,-9.56065 0.47189,-10.46178c2.54445,-3.72607 9.51327,-1.79682 12.67477,-0.95314c3.1467,0.83973 6.31293,1.63108 9.52005,2.19787c5.07433,0.89678 10.37201,0.95274 13.14299,6.26034c0.13563,0.25978 0.17852,2.18088 0.1903,3.95671c0,-1 0,-2 0,-3c0,0 0,-2.5 2.5,-2.5c0.19541,0 0.37554,0.01527 0.54159,0.04343c0.00268,-0.01452 0.00549,-0.029 0.00841,-0.04343c-0.03279,-0.16155 -0.05001,-0.32877 -0.05001,-0.5c0,-0.17123 0.01722,-0.33845 0.05001,-0.5c-0.03279,-0.16155 -0.05001,-0.32877 -0.05001,-0.5c0,-1.38071 1.11929,-2.5 2.5,-2.5c1.38071,0 2.5,1.11929 2.5,2.5c0,0.17123 -0.01722,0.33845 -0.05001,0.5c0.03279,0.16155 0.05001,0.32877 0.05001,0.5c0,0.17123 -0.01722,0.33845 -0.05001,0.5c0.03279,0.16155 0.05001,0.32877 0.05001,0.5c0,1.38071 -1.11929,2.5 -2.5,2.5c-0.17123,0 -0.33845,-0.01722 -0.5,-0.05001c0,1.76434 0,3.52868 0,5.29302c0.76771,-1.0328 1.68794,-1.96709 2.37337,-3.05734c2.00384,-3.18732 2.19917,-7.00296 7.37297,-7.17351c1.4005,-0.04617 2.22575,1.70299 3.33863,2.55448c4.53366,2.99975 10.87658,5.56025 12.80776,11.20889c0.03904,0.11419 0.07472,0.23275 0.10727,0.35531c0,-4.04221 0,-8.08441 0,-12.12662c-0.49182,-0.00204 -0.99124,-0.00424 -1.5,-0.00424c0,0 -2.5,0 -2.5,-2.5c0,-2.5 2.5,-2.5 2.5,-2.5c0.49792,0 0.99787,0.00881 1.49888,0.02106c0.00279,-1.79281 0.01655,-3.91094 0.068,-4.09544c0.45192,-1.62049 1.4647,-3.0291 2.19705,-4.54365c0,0 1.11803,-2.23607 3.3541,-1.11803c2.23607,1.11803 1.11803,3.3541 1.11803,3.3541c-1.22059,2.33994 -1.61839,4.32783 -1.73224,6.44177c1.41962,-0.0695 2.82118,-0.25667 4.18184,-0.68644l1.54656,-1.64114c0,0 1.76777,-1.76777 3.53553,0c1.76777,1.76777 0,3.53553 0,3.53553l-2.45344,2.35886c-2.37104,0.81244 -4.57624,1.15164 -6.81648,1.28991c0.00136,0.19175 0.00215,0.38617 0.00215,0.58347c0,4.66667 0,9.33333 0,14c0,3.33333 0.04914,6.66703 0,10c-0.01119,0.75927 -0.34175,1.55329 -0.10727,2.27554c0.27137,0.83587 1.07944,1.3914 1.54063,2.13949c0.21183,0.34361 0.06711,1.17152 0.4671,1.11725c1.71361,-0.23249 4.3559,-4.74079 4.71091,-5.17029c2.10662,-2.54863 3.53375,-2.9276 4.51693,-6.15257l-0.12829,-1.20943c0,0 0,-2.5 2.5,-2.5c0.17921,0 0.34557,0.01285 0.5,0.0367c0,-1.92611 0,-3.88328 0,-5.5367c0,0 0,-2.5 2.5,-2.5c2.5,0 2.5,2.5 2.5,2.5c0,3 0,6 0,9v1c0,0 0,2.5 -2.5,2.5zM34.13633,255.45531c-0.05185,0.14513 -0.09435,0.23012 -0.09435,0.23012l-0.73607,0.88197c-0.06343,1.01443 -0.31514,2.03458 -0.1903,3.04329c0.14737,1.19077 5.24702,0.46233 5.64928,0.45705c4.37242,-0.0574 7.22547,-1.76529 11.34205,-2.90064c1.14165,-0.31487 2.39068,-0.28168 3.46722,-0.7752c0.83999,-0.38507 3.15129,-4.21347 3.1909,-4.26843c0.89147,-1.2372 2.09958,-2.26755 2.7835,-3.6305c1.59181,-3.17223 1.78115,-7.53335 1.75734,-10.92557c0,-1.68229 0.88423,-3.51078 0.1903,-5.04329c-0.95574,-2.11073 -3.37124,-2.14987 -5.21157,-2.51166c-1.00622,-0.19781 -8.6577,-1.50281 -9.23304,-1.63542c-1.15678,-0.26662 -6.92045,-2.0689 -8.55115,-2.32837c-0.75521,-0.12017 -1.52939,-0.00948 -2.29409,-0.01355c-0.45745,-0.00243 -1.21909,-0.43696 -1.37235,-0.00594c-0.28833,0.81084 0.41813,1.67933 0.47189,2.53822c0.10413,1.66341 0,3.33333 0,5c0,3.06263 -0.54303,6.59221 -0.03228,9.59954c0.53697,3.16172 1.88275,6.5523 2.90399,9.60989c0,0 0.79057,2.37171 -1.58114,3.16228c-1.17759,0.39253 -1.96538,0.00547 -2.46016,-0.48379z" fill="#33f300" stroke="none" stroke-width="0.5" stroke-linecap="butt"/><path d="M118.30591,221.5674c0,-1.38071 1.11929,-2.5 2.5,-2.5c1.38071,0 2.5,1.11929 2.5,2.5c0,1.38071 -1.11929,2.5 -2.5,2.5c-1.38071,0 -2.5,-1.11929 -2.5,-2.5z" fill="#33f300" stroke="none" stroke-width="0.5" stroke-linecap="butt"/><path d="M133.92395,245.80346c-2.23607,1.11803 -3.3541,-1.11803 -3.3541,-1.11803l-0.72893,-1.79823c-0.20374,0.7724 -0.48264,1.4434 -0.8595,1.91194c-0.14096,0.17525 -0.29363,0.33707 -0.45602,0.48773l0.04829,0.04829l-2,2c-0.45241,0.45241 -1.07741,0.73223 -1.76777,0.73223c-1.38071,0 -2.5,-1.11929 -2.5,-2.5c0,-2 0,-8 0,-10c0,0 0,-2.5 2.5,-2.5c0.25104,0 0.47688,0.02521 0.68003,0.07056c0.3763,-3.01582 1.75104,-5.49495 6.49961,-3.77475c1.86317,0.67494 0.78961,3.8858 1.28807,5.80373c0.5436,2.09157 1.01177,4.2395 1.03228,6.40046l0.73607,0.88197c0,0 1.11803,2.23607 -1.11803,3.3541z" fill="#33f300" stroke="none" stroke-width="0.5" stroke-linecap="butt"/><path d="M163.30591,249.5674c0,2.5 -2.5,2.5 -2.5,2.5l-4.08013,-1.11325c-1.52415,-2.30426 -4.13429,-3.8937 -5.22957,-6.43004c-0.28742,-0.66557 -0.28417,-1.39119 -0.22718,-2.13118c-3.9824,2.48347 -8.39875,-1.61909 -11.71794,-3.66325c-1.60168,-0.98641 -3.76041,-1.33033 -4.87181,-2.84795c-0.85287,-1.16459 -0.24892,-2.87622 -0.37337,-4.31433c0,0 0,-2.5 2.5,-2.5c2.5,0 2.5,2.5 2.5,2.5c-0.12446,0.56189 -0.77424,1.27274 -0.37337,1.68567c0.774,0.79729 2.14004,0.6438 3.12819,1.15205c1.06876,0.54972 1.97829,1.36711 3,2c0.9536,0.5907 1.90235,1.20191 2.92241,1.66856c0.24107,0.11029 0.73912,0.29115 0.79467,0.03193c0.31867,-1.48714 -0.47189,-3.01733 -0.47189,-4.53822c0,-4.33333 0,-8.66667 0,-13v-2c0,0 0,-2.5 2.5,-2.5c2.5,0 2.5,2.5 2.5,2.5v2c0,2.38188 0.06753,4.78575 0.11156,7.19073c1.14045,-0.51687 2.68909,-0.3879 4.85022,0.78117c1.36274,0.73718 1.27329,2.82502 1.90993,4.23754c0,0 0.79057,2.37171 -1.58114,3.16228c-2.37171,0.79057 -3.16228,-1.58114 -3.16228,-1.58114c-0.25211,-4.93341 -0.19673,1.621 -0.16057,1.80897c0.1991,1.03512 0.86343,1.95479 1,3c0.14889,1.13944 -0.60657,2.38578 -0.15802,3.44375c0.46018,1.0854 1.85678,1.47633 2.62366,2.37174c0.83521,0.97519 1.43118,2.13215 2.14677,3.19822l-0.08013,-1.11325c0,0 2.5,0 2.5,2.5z" fill="#33f300" stroke="none" stroke-width="0.5" stroke-linecap="butt"/><path d="M225.5,214.33333l28,-2" fill="none" stroke="#2cf200" stroke-width="5" stroke-linecap="round"/></g></g></svg>