<svg version="1.1" xmlns="http://www.w3.org/2000/svg" xmlns:xlink="http://www.w3.org/1999/xlink" width="479.19409" height="461.94611" viewBox="0,0,479.19409,461.94611"><g transform="translate(-1.80591,-5.5674)"><g data-paper-data="{&quot;isPaintingLayer&quot;:true}" fill-rule="nonzero" stroke="#000000" stroke-width="2" stroke-linejoin="miter" stroke-miterlimit="10" stroke-dasharray="" stroke-dashoffset="0" style="mix-blend-mode: normal"><path d="M2.80591,466.5135v-459.94611h477.19409v459.94611z" fill="#0020f2" stroke-linecap="butt"/><path d="M61.80591,180.7l-38,1l-2,48l40,-1" fill="none" stroke-linecap="round"/><path d="M74.80591,173.7l8,60l42,-8" fill="none" stroke-linecap="round"/><path d="M147.80591,179.7v54" fill="none" stroke-linecap="round"/><path d="M200.80591,185.7h-33l-1,38l31,3" fill="none" stroke-linecap="round"/><path d="M222.80591,183.7l-2,57" fill="none" stroke-linecap="round"/><path d="M253.80591,207.7l-33,7l44,26" fill="none" stroke-linecap="round"/><path d="M327.80591,183.7l6,62" fill="none" stroke-linecap="round"/><path d="M313.80591,186.7l33,-10" fill="none" stroke-linecap="round"/><path d="M360.80591,245.7v-78l33,4l-5,67z" fill="none" stroke-linecap="round"/><path d="M86.80591,293.7l-54,6v50l42,-5" fill="none" stroke-linecap="round"/><path d="M107.80591,349.7l4,-55l54,1l-8,54l-42,-3" fill="none" stroke-linecap="round"/><path d="M176.80591,357.7l13,-68l34,62l6,-61" fill="none" stroke-linecap="round"/><path d="M257.80591,297.7l-4,51" fill="none" stroke-linecap="round"/><path d="M249.80591,300.7l36,1" fill="none" stroke-linecap="round"/><path d="M300.80591,313.7l-3,35" fill="none" stroke-linecap="round"/><path d="M319.80591,355.7l4,-50l31,48l5,-51" fill="none" stroke-linecap="round"/><path d="M377.80591,308.7l-1,41l17,-1" fill="none" stroke-linecap="round"/><path d="M396.80591,338.7l5,-32" fill="none" stroke-linecap="round"/><path d="M411.80591,307.7l-1,22l16,-1" fill="none" stroke-linecap="round"/><path d="M411.80591,355.7v-42l14,-2" fill="none" stroke-linecap="round"/><path d="M413.80591,346.7l13,-1" fill="none" stroke-linecap="round"/></g></g></svg>