<svg version="1.1" xmlns="http://www.w3.org/2000/svg" xmlns:xlink="http://www.w3.org/1999/xlink" width="470" height="356.6837" viewBox="0,0,470,356.6837"><g transform="translate(-5.80591,0.8)"><g data-paper-data="{&quot;isPaintingLayer&quot;:true}" fill-rule="nonzero" stroke-linejoin="miter" stroke-miterlimit="10" stroke-dasharray="" stroke-dashoffset="0" style="mix-blend-mode: normal"><path d="M6.80591,339.20001v-339h468v339zM209.80591,220.8174c0.13807,0 0.25,-0.11193 0.25,-0.25c0,-0.13807 -0.11193,-0.25 -0.25,-0.25c-0.13807,0 -0.25,0.11193 -0.25,0.25c0,0.13807 0.11193,0.25 0.25,0.25z" fill="#0066f2" stroke="#000000" stroke-width="2" stroke-linecap="butt"/><path d="M275.80591,354.88371v-4h4v4z" fill="#00d670" stroke="#000000" stroke-width="2" stroke-linecap="butt"/><path d="M46.30591,80.56741c0,-1.38071 1.11929,-2.5 2.5,-2.5c0.31255,0 0.61171,0.05736 0.88752,0.16212c0.37426,-0.29029 0.74847,-0.58211 0.98585,-0.97645c0.50201,-0.83391 0.44184,-1.91531 0.88084,-2.78405c0.19065,-0.37727 0.46336,-0.70853 0.74579,-1.03334c0,-5.14816 0,-10.57076 0,-15.86828c0,-4.87653 0,-9.64708 0,-14c0,0 0,-2.5 2.5,-2.5c2.5,0 2.5,2.5 2.5,2.5c0,2.9863 0,5.97259 0,8.95889c0.17583,0.14459 0.32161,0.30649 0.44038,0.46461c0.2385,0.29319 0.41188,0.64147 0.4981,1.02281c0.19885,0.76013 0.28245,1.57186 0.68815,2.23936c0.55628,0.91525 1.80624,1.35506 2.18307,2.35762c0.23834,0.6341 0.1903,5.90905 0.1903,6.95671c0,7.01484 1.4691,14.35788 -3.73223,19.76777l-0.5317,1.35027c0,0 -1.11803,2.23607 -3.3541,1.11803c-2.23607,-1.11803 -1.11803,-3.3541 -1.11803,-3.3541l0.53817,-0.9712c-0.21491,-0.19803 -0.37223,-0.4271 -0.48741,-0.65638c-0.18915,0.79656 -0.23548,1.64435 -0.4144,2.44458l-1.02859,3.0916c0,0 -0.79057,2.37171 -3.16228,1.58114c-2.37171,-0.79057 -1.58114,-3.16228 -1.58114,-3.16228l0.97141,-2.9084c0.09603,-0.35538 0.17624,-0.71675 0.25179,-1.07988c-0.80287,-0.41599 -1.35149,-1.2545 -1.35149,-2.22116z" fill="#00d670" stroke="none" stroke-width="0.5" stroke-linecap="butt"/><path d="M38.19957,48.14205c2.42536,-0.60634 3.0317,1.81902 3.0317,1.81902l0.91936,3.73897c1.81333,3.59009 3.4969,7.13301 5.73541,10.48062c0,0 1.38675,2.08013 -0.69338,3.46688c-2.08013,1.38675 -3.46688,-0.69338 -3.46688,-0.69338c-2.44798,-3.68221 -4.30325,-7.56176 -6.26459,-11.51938l-1.08064,-4.26103c0,0 -0.60634,-2.42536 1.81902,-3.0317z" fill="#00d670" stroke="none" stroke-width="0.5" stroke-linecap="butt"/><path d="M48.68788,66.80347c-2.23607,-1.11803 6.88197,19.6459 6.88197,19.6459l-23.26393,-2.88197c0,-0.4732 32.99051,-8.14917 33.03228,-8.40046c0.07327,-0.44077 6.42106,31.7105 6.43835,31.64233c0.82885,-3.26802 -39.32538,-10.75044 -38.35903,-13.98048c0.44297,-1.48062 4.55125,-35.69721 5.04083,-37.16308c0.54492,-1.63156 0.42906,-3.4462 1.03787,-5.05502c0.72448,-1.91449 -25.46593,59.57995 -25.15802,57.55625c0.50385,-3.31153 17.03435,-13.36166 18.15802,-16.55625c0.41918,-1.19173 -10.30538,-1.87404 -9.45807,-2.81106c0,0 38.76777,-25.76777 40.53553,-24c1.76777,1.76777 -15,-29.46447 -15,-29.46447c-0.71832,0.58573 -12.5903,71.0687 -15.01088,76.03334c-7.3692,15.11433 -9.82306,-23.03865 -10.28917,-20.40065c-0.42206,2.38873 21.69527,-40.71444 20.84198,-38.44375c-0.56748,1.51012 -0.41409,3.22004 -0.92329,4.75079c-0.47337,1.42303 -34.56209,-53.40384 -34.99801,-51.96889c-0.71618,2.3575 76.67347,7.19343 85.64837,25.43226c3.02333,6.14402 -54.02171,39.51811 -54.22536,40.32273c-0.59653,2.3569 -1.94271,4.50893 -2.34369,6.90685c-0.30785,1.84098 0.03228,3.733 0.03228,5.59954l-1.26393,3.11803c0,0 -1.11803,2.23607 -3.3541,1.11803z" fill="#00d670" stroke="none" stroke-width="0.5" stroke-linecap="butt"/><path d="M195.30591,137.5674c0,-1.23201 0,-2.52959 0,-3.87335c-0.37245,-0.43151 -0.72637,-0.87132 -0.89273,-1.40219c-0.02675,-0.08536 -0.05194,-0.17298 -0.07566,-0.26272c-1.13516,0.43486 -2.24629,0.91386 -3.22957,1.19486c-6.10227,1.74391 -11.90801,3.9139 -18.30204,3.8434c-1.24193,-0.01369 -2.54418,0.27939 -3.72446,-0.10727c-0.66209,-0.2169 -1.25373,-0.58348 -1.82592,-0.9914c0.02994,0.88214 0.05038,1.75104 0.05038,2.59867c0,2.76945 -0.41013,5.95524 -0.01873,8.69454c0.33876,2.37094 1.58627,4.54365 1.98645,6.905c0.20881,1.23212 0.26574,2.50133 0.45836,3.73638c0.57392,0.72677 0.57392,1.66408 0.57392,1.66408l-0.17681,0.06499c0.01572,0.04826 0.03188,0.09641 0.04852,0.14444l-0.39528,-0.01699l-4.34813,1.59813c-0.66481,-2.05635 -0.74715,-4.25732 -1.09601,-6.39011c-0.39684,-2.42615 -1.66593,-4.6613 -2.01355,-7.095c-0.41962,-2.93776 -0.01873,-6.33261 -0.01873,-9.30546c0,-4.96008 -0.5705,-10.4952 0.03228,-15.40046c0.12856,-1.04622 0.82049,-1.9613 1,-3c0.72951,-4.22116 -0.03226,-9.32535 -0.03228,-13.59936c-0.60722,-0.4561 -1,-1.18227 -1,-2.00018c0,-1.38071 1.11929,-2.5 2.5,-2.5c1.35651,0 2.46068,1.08039 2.49897,2.42764c1.00103,0.71422 1.00103,2.07236 1.00103,2.07236c0,4.5789 0.69897,9.86647 -0.03228,14.40046c-0.16784,1.04064 -0.86685,1.95435 -1,3c-0.24719,1.94116 -0.28078,4.00577 -0.2367,6.09392c0.66434,0.09791 1.15573,0.4255 1.15573,0.4255c3.63221,2.62179 7.69593,1.82895 11.96659,0.66521c4.63135,-1.26204 9.27203,-2.57391 13.86769,-3.96129c0.07529,-2.05288 0.27897,-4.14255 0.27897,-5.62379c0,0 0,-1.35721 1,-2.07163c0,-3.5125 0,-6.91639 0,-9.92837c0,0 0,-2.5 2.5,-2.5c2.5,0 2.5,2.5 2.5,2.5c0,5.43722 0,10.87443 0,16.31165c0.46567,0.06595 0.94893,0.1874 1.45671,0.37865c1.18223,0.44529 1.87404,1.69462 2.81106,2.54193l0.73223,2.76777c0,0 0,2.5 -2.5,2.5c-0.88128,0 -1.4519,-0.31066 -1.82137,-0.71297c0.08713,0.1552 0.16039,0.31711 0.2141,0.4885c0.89264,2.84847 -0.27821,6.52707 0.0951,9.47812c0.78141,6.17706 1.01217,11.99894 1.01217,18.24634v1c0,0 0,2.5 -2.5,2.5c-2.5,0 -2.5,-2.5 -2.5,-2.5v-1c0,-6.09335 -0.2544,-11.73225 -0.98783,-17.75366c-0.13634,-1.11937 0.05251,-2.57623 0.20843,-4.03722c-1.2206,-0.65902 -1.2206,-2.20913 -1.2206,-2.20913zM200.30959,131.65697c-0.00122,-0.00084 -0.00245,-0.00168 -0.00367,-0.00252c0,0.2621 0,0.52419 0,0.78629c0.10673,0.12366 0.21195,0.248 0.31166,0.37497c-0.24074,-0.48234 -0.29552,-0.96435 -0.30799,-1.15874zM200.63385,131.91124l0.4043,0.42392c-0.12888,-0.15805 -0.26382,-0.29894 -0.4043,-0.42392z" fill="#000000" stroke="none" stroke-width="0.5" stroke-linecap="butt"/><path d="M215.80591,167.5674l25,-62l22,57" fill="none" stroke="#000000" stroke-width="2" stroke-linecap="round"/><path d="M229.80591,137.5674h23" fill="none" stroke="#000000" stroke-width="2" stroke-linecap="round"/><path d="M278.80591,165.5674v-65l33,3l-3,21l-27,7" fill="none" stroke="#000000" stroke-width="2" stroke-linecap="round"/><path d="M318.80591,162.5674l3,-60l31,6l-6,15l-25,1" fill="none" stroke="#000000" stroke-width="2" stroke-linecap="round"/><path d="M359.80591,105.56741l11,29" fill="none" stroke="#000000" stroke-width="2" stroke-linecap="round"/><path d="M398.80591,98.56741l-52,69" fill="none" stroke="#000000" stroke-width="2" stroke-linecap="round"/><path d="M168.80591,157.5674l-1,-12l-2,15l-3,-62" fill="none" stroke="#000000" stroke-width="2" stroke-linecap="round"/><path d="M206.80591,220.8174" fill="none" stroke="#000000" stroke-width="2" stroke-linecap="round"/><path d="M206.80591,220.8174v25.75l-43,3l-4,-65l47,2v33l-43,-1" fill="none" stroke="#000000" stroke-width="2" stroke-linecap="round"/><path d="M229.80591,256.81611c-0.13807,0 -0.25,-0.11193 -0.25,-0.25v-0.5h0.5v0.5c0,0.13807 -0.11193,0.25 -0.25,0.25z" fill="none" stroke="none" stroke-width="0.5" stroke-linecap="butt"/><path d="M258.80591,266.06739c-2.5,0 -2.5,-2.5 -2.5,-2.5l0.03228,-3.40046c0.68908,-2.08445 0.63434,-4.35215 1.16649,-6.48208c0.39976,-1.60003 1.48907,-2.98018 1.84633,-4.59023c0.63857,-2.8778 -0.36025,-5.91467 -0.02504,-8.84334c0.1611,-1.40753 0.85876,-2.71356 1.0595,-4.11598c0.92449,-6.45899 0.92044,-13.04937 0.92044,-19.5679c0,-9.03142 -1.08367,-18.81522 1.07464,-27.60634c0,0 0.60634,-2.42536 3.0317,-1.81902c2.42536,0.60634 1.81902,3.0317 1.81902,3.0317c-2.11865,8.30127 -0.92536,17.84847 -0.92536,26.39366c0,6.77148 -0.02037,13.60862 -0.97731,20.31989c-0.19433,1.36289 -0.88167,2.629 -1.04276,3.99622c-0.0781,0.66285 0.13565,8.38645 -0.02504,9.15666c-0.34397,1.64862 -1.45888,3.06075 -1.86757,4.69453c-0.51228,2.04787 -0.44692,4.23223 -1.1196,6.23315l0.03228,2.59954c0,0 0,2.5 -2.5,2.5z" fill="#33f300" stroke="none" stroke-width="0.5" stroke-linecap="butt"/><path d="M263.80591,264.06739c1.83871,0 2.32508,1.35234 2.45373,2.06777c3.35286,0.15813 6.99927,0.49976 10.09058,-0.02589c2.79205,-0.47477 5.43002,-1.76584 8.24949,-2.03336c2.86447,-0.2718 5.80355,0.58747 8.63182,0.05836c2.12069,-0.39674 3.2694,-2.82081 4.80662,-4.33464c2.7769,-2.73466 6.26007,-3.23298 8.63749,-6.54064c1.13085,-1.57333 0.63136,-5.55913 0.62139,-6.73512c-0.07662,-9.03811 -0.39314,-18.71742 -2.12942,-27.58075c-0.76579,-4.61885 -0.99632,-9.1634 -1.78797,-13.7731c-0.1053,-0.61315 0.111,-1.4079 -0.34149,-1.83486c-0.49972,-0.47153 -1.36129,-0.21042 -2.0228,-0.39606c-1.82364,-0.51176 -3.74157,-0.5926 -5.60989,-0.90399c-1.03975,-0.17329 -1.9613,-0.82049 -3,-1c-4.85528,-0.83909 -10.72664,0.91011 -15.11703,-2.48095c-1.10069,-0.85016 -1.53562,-2.32501 -2.41587,-3.40179c-1.91645,-2.34433 -4.63321,-4.69569 -6.19327,-7.27064c-0.90819,-1.49902 -1.3656,-3.34453 -2.64114,-4.54656c0,0 -1.76777,-1.76777 0,-3.53553c1.76777,-1.76777 3.53553,0 3.53553,0c0.78629,0.81781 1.76391,1.48747 2.35886,2.45344c0.55279,0.89751 0.46203,2.09352 1,3c1.4166,2.38698 4.07919,4.51304 5.80673,6.72936c0.62359,0.80003 0.80962,1.94319 1.58413,2.59821c2.06472,1.74619 7.04505,1.48211 9.48252,1.48677c2.16105,0.00413 4.2688,0.67701 6.40046,1.03228c2.13174,0.35529 4.36095,0.35237 6.39011,1.09601c1.34219,0.49188 2.97829,0.5814 3.9772,1.60394c1.04427,1.06898 1.27011,2.7221 1.65851,4.16514c1.22438,4.54894 1.07859,9.45236 1.85602,14.09084c1.75737,9.12973 2.18989,19.13687 2.20875,28.44275c0.00632,3.11578 0.52686,6.55675 -1.36077,9.37744c-2.84569,4.25231 -6.20464,4.24684 -9.36251,7.45936c-0.87793,0.89312 -1.12939,2.33156 -2.11326,3.10643c-4.80581,3.78496 -9.00781,2.13461 -14.44831,2.61729c-2.65495,0.23554 -5.12021,1.53562 -7.75051,1.96664c-4.1963,0.68763 -9.18328,0.04188 -13.45569,0.04188l-2.5,-4.5c0,0 0,-2.5 2.5,-2.5z" fill="#33f300" stroke="none" stroke-width="0.5" stroke-linecap="butt"/><path d="M375.6227,275.30942c0.31372,-0.14949 0.70219,-0.24204 1.18321,-0.24204c2.5,0 2.5,2.5 2.5,2.5l-3.29057,3.37171c-1.17459,-0.41503 -2.47467,-0.57328 -3.52376,-1.24508c-3.23382,-2.07082 -3.6386,-5.64065 -6.08825,-8.39647c-3.62115,-7.3059 -6.33987,-14.73958 -9.14054,-22.35615c-2.87321,5.18127 -6.97792,10.2677 -10.41604,15.06992c-1.48895,2.0797 -4.68422,6.63836 -7.08414,7.86577c-1.69196,0.86533 -4.04139,-0.20698 -5.64238,0.81693c-0.90229,0.57706 -1.35506,1.80624 -2.35762,2.18307c-0.70181,0.26379 -8.84594,0.1986 -8.95671,0.1903c-1.60339,-0.1202 -3.63082,0.40472 -4.76777,-0.73223c-1.00556,-1.00556 -0.69381,-6.82144 -0.66536,-8.34215c1.22336,-2.52477 1.8735,-5.32798 3.3065,-7.73995c0.48156,-0.81055 1.51091,-1.19397 2,-2c0.47825,-0.78818 0.46047,-1.79215 0.81693,-2.64238c1.15274,-2.74956 2.81555,-5.26395 4,-8c2.01149,-4.64651 3.11493,-9.56843 6.37634,-13.62826c1.31921,-1.64217 3.61675,-2.29894 4.94659,-3.93251c0.53272,-0.6544 0.35291,-1.66015 0.67707,-2.43922c1.09067,-2.6213 1.86572,-5.36862 2.98928,-7.97577c-0.01629,-0.11572 -0.03987,-0.23017 -0.07231,-0.34306c-0.33197,-1.15509 -1.71782,-1.83174 -2,-3c-0.44808,-1.85514 -0.27189,-3.82309 -0.10727,-5.72446c0.39274,-4.53615 0.64162,-8.38527 7.138,-3.88863c0.95321,0.65979 1.45053,1.7447 1.87745,2.87863c0.596,-0.47388 1.60521,-0.91418 2.87129,-0.07012c2.08013,1.38675 0.69338,3.46688 0.69338,3.46688c-0.43922,0.65882 -0.94018,1.34003 -1.46421,2.0368c0.76389,2.33066 1.35074,4.80642 1.82318,7.02798c0.30222,1.42114 0.17745,2.96012 0.7567,4.29257c0.38969,0.89641 1.65972,1.21176 2.0295,2.11657c0.63318,1.54932 1.28432,7.14122 1.81729,9.65752c0.07129,0.12552 0.13916,0.25324 0.20321,0.38343c0.66271,1.34713 1.06528,2.67343 1.2311,3.98798c0.71723,1.81732 1.51309,3.60902 2.18796,5.44119c2.83559,7.69817 5.50958,15.23746 9.09471,22.62869c2.34926,2.72772 2.65302,5.23452 5.05723,6.78255zM345.23639,224.64526c-0.34534,0.97107 -0.70675,1.9356 -1.12078,2.87886c-0.50892,1.15942 -0.53769,2.56747 -1.32293,3.56078c-2.31906,2.93355 -4.95826,3.12163 -6.78857,6.67328c-1.63233,3.16748 -2.4879,6.5332 -3.8885,9.76595c-1.18525,2.7357 -2.82846,5.2584 -4,8c-0.46629,1.0912 -0.57696,2.33744 -1.18307,3.35762c-0.48156,0.81055 -1.51091,1.19397 -2,2c-1.17843,1.94208 -1.6475,4.24356 -2.6935,6.26005c0.02229,0.80854 0.21163,1.62983 0.06688,2.42562c-0.08551,0.47008 -1.07008,0.89438 -0.73223,1.23223c0.33785,0.33785 0.75771,-0.67648 1.23223,-0.73223c1.65528,-0.19448 3.33394,-0.04501 5,0c0.6838,0.01848 1.41748,0.46649 2.04329,0.1903c0.7469,-0.32963 0.93261,-1.41351 1.64238,-1.81693c1.19896,-0.68145 2.55806,-1.08879 3.91387,-1.34109c0.80251,-0.14934 1.70814,0.51186 2.44375,0.15802c2.36133,-1.13585 3.39535,-4.0002 4.91586,-6.13423c2.62932,-3.69025 5.08167,-7.5089 7.70328,-11.20827c1.56467,-2.20792 3.24981,-4.13107 3.88229,-6.81854c0.12517,-0.53185 0.17081,-1.03183 0.15143,-1.5055c-0.55412,-1.47034 -1.04243,-2.76926 -1.23253,-3.28442c-1.04154,-1.49429 -2.51384,-2.80174 -3.49173,-4.27756c-1.66426,-2.51169 -2.85193,-5.9754 -3.93837,-8.76255c-0.19014,-0.21403 -0.39338,-0.41974 -0.60305,-0.62137zM347.94858,220.79295c-0.14387,-0.70692 -0.283,-1.41761 -0.42766,-2.12307c-0.15494,0.29893 -0.29678,0.59746 -0.4229,0.89513c0.01025,0.0281 0.02126,0.05607 0.03306,0.0839c0.1864,0.43933 0.47687,0.80857 0.8175,1.14403zM345.24559,212.99657c0.14657,-0.20574 0.29456,-0.4109 0.44332,-0.61539c-0.18385,-0.45 -0.37247,-0.89828 -0.55791,-1.34766c-0.04583,0.66275 -0.06327,1.30617 0.06764,1.80942c0.01357,0.05215 0.02928,0.10333 0.04694,0.15363z" fill="#33f300" stroke="none" stroke-width="0.5" stroke-linecap="butt"/><path d="M400.01534,300.93911c-2.37171,-0.79057 -1.58114,-3.16228 -1.58114,-3.16228l1,-3c0.62446,-1.87339 1.57935,-3.66203 1.90399,-5.60989c0.18585,-1.11511 -0.34055,-2.34732 0.09601,-3.39011c0.68666,-1.64019 2.28592,-2.75432 3.13126,-4.31866c0.51593,-0.95475 0.59608,-2.08701 0.89412,-3.13051c1.4443,-1.83725 3.19971,-3.43745 4.71387,-5.21482c-2.25355,-5.06828 -5.52426,-9.5239 -8.49417,-14.23111c-1.59088,-2.5215 -2.43015,-5.46535 -4,-8c-1.79202,-2.89337 -4.1848,-5.44705 -5.57572,-8.55321c-3.24328,-7.24283 -5.58756,-15.01767 -8.39798,-22.39945c-1.24448,-3.26873 -2.85725,-4.55108 -3.36739,-7.9612c-0.4636,-3.09902 -0.03228,-6.26695 -0.03228,-9.40046c0,0 0,-2.5 2.5,-2.5c2.5,0 2.5,2.5 2.5,2.5c0,2.86653 -0.41295,5.7584 -0.03228,8.59954c0.25246,1.88424 2.69516,5.90727 3.10475,6.98307c1.77468,4.66131 3.22597,9.28854 5.21388,13.91627c1.15564,2.69025 1.89746,5.54754 3.07828,8.22683c1.28273,2.91054 3.59227,5.25282 5.26201,7.95995c1.56515,2.53756 2.40205,5.48297 4,8c2.43733,3.83919 4.99695,7.52651 7.12808,11.47201c0.15715,-0.46964 0.33155,-0.93133 0.55792,-1.36823c1.25512,-2.42238 3.39836,-4.2868 4.81613,-6.61772c5.05903,-8.31745 9.79656,-16.9239 13.86493,-25.7465c1.75909,-3.81474 3.47302,-7.66459 5.23836,-11.4771c1.08074,-2.33402 3.02486,-4.24514 3.87521,-6.67259c0.5815,-1.65997 -0.10727,-3.51666 -0.10727,-5.27554c0,0 0,-2.5 2.5,-2.5c2.5,0 2.5,2.5 2.5,2.5c0,0.7784 0.02879,6.30222 -0.10727,6.72446c-0.85964,2.66779 -2.95239,4.78151 -4.12479,7.32741c-1.75794,3.81745 -3.47416,7.65155 -5.23377,11.46717c-4.14644,8.99133 -8.96947,17.78241 -14.13507,26.2535c-1.38453,2.27049 -3.49986,4.07085 -4.71173,6.43801c-0.78239,1.52825 -1.02099,3.31995 -1.9348,4.77344c-0.06568,0.10448 -0.1327,0.20795 -0.20096,0.3105c0.11024,0.30265 0.217,0.60758 0.3201,0.91494l0.74633,-0.4455c0,0 2.23607,1.11803 1.11803,3.3541c-1.11803,2.23607 -3.3541,1.11803 -3.3541,1.11803l-1.83403,-1.37848c-1.00614,1.04459 -2.03471,2.0735 -2.94856,3.19084c-0.28631,1.02027 -0.34619,2.13343 -0.85893,3.0608c-0.75274,1.36147 -2.24133,2.25777 -2.86874,3.68134c-0.35109,0.79661 0.23913,1.75118 0.09601,2.60989c-0.04409,0.26457 -1.94189,5.92776 -2.09601,6.39011l-1,3c0,0 -0.79057,2.37171 -3.16228,1.58114z" fill="#33f300" stroke="none" stroke-width="0.5" stroke-linecap="butt"/><path d="M227.80591,270.56739h-63v25l64,-3v23l-76,1" fill="none" stroke="#000000" stroke-width="2" stroke-linecap="round"/><path d="M231.80591,314.56739l16,-30l12,33" fill="none" stroke="#000000" stroke-width="2" stroke-linecap="round"/><path d="M239.80591,296.56739l20,6" fill="none" stroke="#000000" stroke-width="2" stroke-linecap="round"/><path d="M295.80591,288.56739h-23l6,17l25,1l-5,16l-26,-5" fill="none" stroke="#000000" stroke-width="2" stroke-linecap="round"/><path d="M319.80591,295.56739l-5,36" fill="none" stroke="#000000" stroke-width="2" stroke-linecap="round"/><path d="M318.80591,311.56739l31,1" fill="none" stroke="#000000" stroke-width="2" stroke-linecap="round"/><path d="M346.80591,331.56739l3,-34" fill="none" stroke="#000000" stroke-width="2" stroke-linecap="round"/><path d="M372.80591,327.56739l12,-29l22,33" fill="none" stroke="#000000" stroke-width="2" stroke-linecap="round"/><path d="M395.80591,315.56739h-17" fill="none" stroke="#000000" stroke-width="2" stroke-linecap="round"/><path d="M251.5,219.87519h-28" fill="none" stroke="#000000" stroke-width="5" stroke-linecap="round"/></g></g></svg>